HIERARCHY
ROOT Hips
{
	OFFSET 0.00000 0.00000 0.00000
	CHANNELS 6 Xposition Yposition Zposition Zrotation Yrotation Xrotation 
	JOINT RightUpLegDummy
	{
		OFFSET 0 0 0
		CHANNELS 3 Zrotation Yrotation Xrotation
		JOINT RightUpLeg
		{
			OFFSET -3.52197 -3.41223 0.04002
			CHANNELS 3 Zrotation Yrotation Xrotation
			JOINT RightLeg
			{
				OFFSET 0.00006 -17.42390 1.60435
				CHANNELS 3 Zrotation Yrotation Xrotation
				JOINT RightFoot
				{
					OFFSET 0.06153 -16.50078 -1.63901
					CHANNELS 3 Zrotation Yrotation Xrotation
					JOINT RightToes
					{
						OFFSET 0.00298 -1.73825 3.34613
						CHANNELS 3 Zrotation Yrotation Xrotation
						End Site
						{
							OFFSET 0.00480 -0.05416 3.85043
						}
					}
				}
			}
		}
	}
	JOINT SpineDummy
	{
		OFFSET 0 0 0
		CHANNELS 3 Zrotation Yrotation Xrotation
		JOINT Spine
		{
			OFFSET 0.00000 4.68130 0.00000
			CHANNELS 3 Zrotation Yrotation Xrotation
			JOINT Spine1
			{
				OFFSET -0.00000 10.10138 0.05002
				CHANNELS 3 Zrotation Yrotation Xrotation
				JOINT HEadDummy
				{
					OFFSET 0 0 0
					CHANNELS 3 Zrotation Yrotation Xrotation
					JOINT Head
					{
						OFFSET -0.00000 3.43865 0.00438
						CHANNELS 3 Zrotation Yrotation Xrotation
						End Site
						{
							OFFSET -0.11417 5.02924 0.98962
						}
					}
				}
				JOINT LeftShoulder1Dummy
				{
					OFFSET 0 0 0
					CHANNELS 3 Zrotation Yrotation Xrotation
					JOINT LeftShoulder1
					{
						OFFSET 3.53937 -0.14262 -0.08662
						CHANNELS 3 Zrotation Yrotation Xrotation
						JOINT LeftArm
						{
							OFFSET 4.04833 -0.00133 0.12681
							CHANNELS 3 Zrotation Yrotation Xrotation
							JOINT LeftForeArm
							{
								OFFSET 10.33880 -0.01036 -0.55515
								CHANNELS 3 Zrotation Yrotation Xrotation
								JOINT LeftHand
								{
									OFFSET 8.69677 0.07543 0.40060
									CHANNELS 3 Zrotation Yrotation Xrotation
									End Site
									{
										OFFSET 5.28377 -0.21905 0.59205
									}
								}
							}
						}
					}
				}
				JOINT RightShoulderDummy
				{
					OFFSET 0 0 0
					CHANNELS 3 Zrotation Yrotation Xrotation
					JOINT RightShoulder
					{
						OFFSET -3.53937 -0.14262 -0.08660
						CHANNELS 3 Zrotation Yrotation Xrotation
						JOINT RightArm
						{
							OFFSET -4.04833 -0.00133 0.12683
							CHANNELS 3 Zrotation Yrotation Xrotation
							JOINT RightForeArm
							{
								OFFSET -10.37987 -0.01039 -0.55511
								CHANNELS 3 Zrotation Yrotation Xrotation
								JOINT RightHand
								{
									OFFSET -8.67398 0.07538 0.40058
									CHANNELS 3 Zrotation Yrotation Xrotation
									End Site
									{
										OFFSET -5.24810 -0.21916 0.59204
									}
								}
							}
						}
					}
				}
			}
		}
	}
	JOINT LeftUpLegDummy
	{
		OFFSET 0 0 0
		CHANNELS 3 Zrotation Yrotation Xrotation
		JOINT LeftUpLeg
		{
			OFFSET 3.52197 -3.41223 0.04002
			CHANNELS 3 Zrotation Yrotation Xrotation
			JOINT LeftLeg
			{
				OFFSET -0.00012 -17.42399 1.60337
				CHANNELS 3 Zrotation Yrotation Xrotation
				JOINT LeftFoot
				{
					OFFSET -0.09972 -16.50070 -1.63802
					CHANNELS 3 Zrotation Yrotation Xrotation
					JOINT LeftToes
					{
						OFFSET -0.01575 -1.73823 3.34611
						CHANNELS 3 Zrotation Yrotation Xrotation
						End Site
						{
							OFFSET 0.03150 -0.01868 3.85031
						}
					}
				}
			}
		}
	}
}
MOTION
Frames: 19
Frame Time: 0.033333
-25.7880 38.5302 -2.6920 -177.6100 -85.5708 172.5570 0.0000 0.0000 0.0000 2.3776 -0.6196 11.7979 1.8157 4.0080 21.0842 -5.5136 -0.3411 -17.1626 0.0000 -0.0000 0.0000 0.0000 0.0000 0.0000 -1.4018 1.0662 8.4987 2.7249 0.5849 -0.2351 -0.0000 0.0000 -0.0000 3.4952 -2.1574 -3.9888 -0.0000 0.0000 -0.0000 -35.3732 -2.4352 2.4604 -44.2279 -15.5260 -17.2341 -10.8370 5.2304 44.2186 15.6228 -3.6144 -1.1855 -0.0000 0.0000 -0.0000 35.9272 5.3717 3.7250 37.6573 0.8987 -19.3947 9.9466 -0.5525 22.9487 -11.2467 1.9154 -0.6919 0.0000 0.0000 0.0000 0.2277 -0.1461 -16.6212 1.8948 10.0411 7.5067 -1.9904 0.2524 4.2413 0.0000 0.0000 -0.0000
-26.9898 38.4186 -2.4849 170.8850 -84.7241 -176.1410 0.0000 0.0000 0.0000 -0.3395 -2.2032 11.2092 3.5119 5.9903 26.1629 -3.2341 -0.1757 -15.5055 0.0000 -0.0000 0.0000 0.0000 0.0000 0.0000 -2.4437 1.3153 7.8669 2.5731 0.8692 0.0937 -0.0000 0.0000 -0.0000 3.4364 -2.6789 -4.1226 -0.0000 0.0000 -0.0000 -35.3937 -2.4289 2.4590 -44.0077 -14.3024 -19.6389 -9.6874 5.2235 44.9879 15.5048 -2.8695 -1.0822 -0.0000 0.0000 -0.0000 36.2033 5.4133 3.7676 37.7773 -0.7104 -20.3525 9.6588 -0.9022 22.6082 -11.3553 1.8714 -0.6948 0.0000 0.0000 0.0000 -0.7169 -0.0285 -16.3046 2.0400 10.9313 10.4745 -2.1831 0.3059 6.8196 0.0000 0.0000 -0.0000
-28.0864 38.3489 -2.2696 162.3830 -83.6820 -167.9250 0.0000 0.0000 0.0000 -3.4504 -3.8907 9.2447 5.8847 7.6402 33.0924 2.3667 -0.0763 -11.0601 0.0000 -0.0000 0.0000 0.0000 0.0000 0.0000 -3.2788 1.5404 7.9432 2.1704 1.1864 -0.1666 -0.0000 0.0000 -0.0000 3.2743 -3.0290 -3.8658 -0.0000 0.0000 -0.0000 -35.0433 -2.4263 2.4368 -43.8629 -12.8721 -21.6468 -8.7705 5.2480 44.4395 14.6789 -2.2193 -0.9449 -0.0000 0.0000 -0.0000 36.0052 5.3796 3.7354 38.6144 -1.8714 -21.3939 9.2393 -1.2063 22.7709 -11.2553 1.7735 -0.6799 0.0000 0.0000 0.0000 -1.7787 0.1847 -15.9004 1.9942 11.3373 13.5948 -1.2373 0.1551 5.7173 0.0000 0.0000 -0.0000
-29.0375 38.2945 -2.0440 160.5850 -82.5123 -166.6270 0.0000 0.0000 0.0000 -5.7534 -4.5886 6.1180 7.6203 7.5018 41.0539 10.5234 -0.7117 -3.9893 0.0000 -0.0000 0.0000 0.0000 0.0000 0.0000 -3.2805 1.7358 8.9495 1.5354 1.4987 -0.8567 -0.0000 0.0000 -0.0000 2.7842 -3.0729 -3.5956 -0.0000 0.0000 -0.0000 -34.6684 -2.4370 2.4185 -43.4695 -11.6338 -22.5864 -8.4289 5.2592 44.1489 13.5841 -2.0134 -0.8490 -0.0000 0.0000 -0.0000 35.7071 5.3299 3.6875 39.4504 -2.3339 -21.9191 9.0091 -1.2375 22.7944 -10.7538 1.6747 -0.6403 0.0000 0.0000 0.0000 -2.5320 0.5390 -15.2766 2.1332 11.5922 16.6874 0.4011 -0.0684 2.9186 0.0000 0.0000 -0.0000
-29.8822 38.2509 -1.8251 163.8730 -81.4435 -170.5420 0.0000 0.0000 0.0000 -6.5718 -4.2203 2.5082 6.7363 5.1516 48.3670 16.6019 -2.0020 2.5842 0.0000 -0.0000 0.0000 0.0000 0.0000 0.0000 -2.5855 1.7660 10.3729 1.0191 1.6084 -1.4783 -0.0000 0.0000 -0.0000 1.9915 -2.7441 -3.6970 -0.0000 0.0000 -0.0000 -34.4759 -2.4652 2.4183 -42.8104 -10.8241 -22.4622 -8.5629 5.2201 45.5567 13.0339 -2.3641 -0.8510 -0.0000 0.0000 -0.0000 35.6862 5.3286 3.6851 39.5672 -1.9976 -21.3875 9.2285 -0.9733 22.5332 -10.0718 1.7657 -0.6056 0.0000 0.0000 0.0000 -2.7026 0.9172 -14.4334 2.7687 12.1628 19.4076 1.0285 -0.1100 0.3668 0.0000 0.0000 -0.0000
-30.7304 38.2796 -1.6421 168.5210 -80.9134 -175.7230 0.0000 0.0000 0.0000 -6.1819 -3.8556 -0.8892 2.9062 1.9029 53.8640 16.4561 -2.4203 5.4623 0.0000 -0.0000 0.0000 0.0000 0.0000 0.0000 -1.9173 1.4327 11.4572 1.1349 1.2443 -1.7039 -0.0000 0.0000 -0.0000 1.1094 -2.0760 -4.0706 -0.0000 0.0000 -0.0000 -34.3927 -2.5127 2.4324 -42.1723 -10.4715 -21.9586 -8.7621 5.1424 48.2612 13.3283 -2.8849 -0.9270 -0.0000 0.0000 -0.0000 35.7357 5.3410 3.6948 39.2976 -1.1640 -20.1839 9.6820 -0.2008 22.3410 -9.6964 2.0776 -0.6062 0.0000 0.0000 0.0000 -2.5218 1.2536 -13.2001 3.3980 12.4199 21.1248 0.8330 -0.0610 -1.6170 0.0000 0.0000 -0.0000
-31.6292 38.4065 -1.5138 172.9860 -81.2132 179.4520 0.0000 0.0000 0.0000 -5.1883 -4.2863 -3.7721 -2.6330 -1.1990 57.0079 11.1662 -1.5595 4.5468 0.0000 -0.0000 0.0000 0.0000 0.0000 0.0000 -1.7540 0.7661 12.0057 2.0518 0.3983 -1.6272 -0.0000 0.0000 -0.0000 0.4040 -1.3136 -4.2899 -0.0000 0.0000 -0.0000 -34.3101 -2.5657 2.4487 -41.6970 -10.6473 -21.7321 -8.7300 5.0702 50.7090 13.8901 -3.0997 -0.9913 -0.0000 0.0000 -0.0000 35.5596 5.3146 3.6679 39.3401 -0.3417 -19.1225 10.0046 1.4377 21.9114 -9.9276 2.2778 -0.6367 0.0000 0.0000 0.0000 -2.2746 1.4831 -11.4934 3.4635 11.9500 21.6027 1.0587 -0.0548 -3.2371 0.0000 0.0000 -0.0000
-32.5200 38.5640 -1.4392 177.9440 -81.8949 174.2860 0.0000 0.0000 0.0000 -3.9077 -5.0489 -6.2753 -7.9056 -3.8311 57.7110 5.3191 -0.6143 2.0291 0.0000 -0.0000 0.0000 0.0000 0.0000 0.0000 -1.9273 0.0918 12.2825 3.3582 -0.5384 -1.5062 -0.0000 0.0000 -0.0000 0.0921 -0.8266 -4.1151 -0.0000 0.0000 -0.0000 -34.1620 -2.5898 2.4493 -41.3048 -11.4269 -21.9015 -8.4674 5.0310 52.0673 14.0801 -2.9802 -0.9919 -0.0000 0.0000 -0.0000 35.3167 5.2755 3.6298 39.6992 0.2256 -18.4277 10.1608 3.8345 20.6192 -10.5679 2.1433 -0.6679 0.0000 0.0000 0.0000 -1.9588 1.6748 -9.6948 3.2572 11.1794 21.4920 1.6041 -0.0689 -4.5092 0.0000 0.0000 -0.0000
-33.3633 38.6993 -1.4035 -176.4620 -82.1917 168.7020 0.0000 0.0000 0.0000 -2.4362 -5.2465 -8.6497 -10.8704 -5.7311 56.1351 1.9481 -0.1890 -0.0213 0.0000 -0.0000 0.0000 0.0000 0.0000 0.0000 -2.0187 -0.2964 12.3469 4.4678 -1.1497 -1.4437 -0.0000 0.0000 -0.0000 0.2239 -0.7828 -3.6748 -0.0000 0.0000 -0.0000 -33.8936 -2.5754 2.4270 -40.9449 -12.6058 -22.1520 -8.1893 5.0221 52.4409 13.9689 -2.7502 -0.9577 -0.0000 0.0000 -0.0000 35.2747 5.2724 3.6248 39.9837 0.6614 -17.4647 10.2401 6.3754 18.5745 -11.0816 1.9922 -0.6883 0.0000 0.0000 0.0000 -1.4684 1.9323 -8.1699 3.1896 10.7153 21.3411 1.6695 -0.0509 -5.5794 0.0000 0.0000 -0.0000
-34.1772 38.8225 -1.3895 -171.9060 -82.0171 164.4470 0.0000 0.0000 0.0000 -0.9953 -4.8583 -10.8371 -11.1106 -6.8574 52.3023 0.8284 -0.0761 -1.3394 0.0000 -0.0000 0.0000 0.0000 0.0000 0.0000 -1.9436 -0.4270 12.0735 5.1578 -1.4159 -1.4124 -0.0000 0.0000 -0.0000 0.6347 -1.0202 -3.2360 -0.0000 0.0000 -0.0000 -33.5843 -2.5568 2.4006 -40.5773 -13.8195 -22.1394 -8.1431 5.0380 51.9488 14.0033 -2.5904 -0.9420 -0.0000 0.0000 -0.0000 35.3584 5.2922 3.6405 40.2096 1.1298 -15.3367 10.0657 8.6434 16.1210 -11.0946 2.1924 -0.7066 0.0000 0.0000 0.0000 -0.9503 2.2288 -6.8925 3.1503 10.5660 21.0217 1.3774 -0.0166 -6.6413 0.0000 0.0000 -0.0000
-34.9705 38.9562 -1.3945 -168.9360 -81.8724 161.9490 0.0000 0.0000 0.0000 0.1986 -4.4888 -12.4793 -9.6337 -7.4174 46.2835 0.8369 -0.0736 -2.4172 0.0000 -0.0000 0.0000 0.0000 0.0000 0.0000 -1.8673 -0.4906 11.5914 5.5629 -1.5643 -1.3875 -0.0000 0.0000 -0.0000 1.0775 -1.3115 -2.9652 -0.0000 0.0000 -0.0000 -33.4715 -2.5532 2.3923 -40.0537 -14.9601 -21.7759 -8.4081 5.0776 50.5719 14.3834 -2.5695 -0.9660 -0.0000 0.0000 -0.0000 35.3800 5.2989 3.6453 40.5735 1.6455 -12.9200 9.6417 10.4490 14.2600 -10.8216 2.5687 -0.7209 0.0000 0.0000 0.0000 -0.6025 2.4415 -5.6161 2.9470 10.4181 20.2351 1.2810 0.0025 -7.5156 0.0000 0.0000 -0.0000
-35.7227 39.0969 -1.4321 -165.7500 -81.8855 159.1310 0.0000 0.0000 0.0000 1.3709 -4.1620 -13.1553 -7.5910 -7.6654 38.4104 1.0064 -0.0823 -2.9892 0.0000 -0.0000 0.0000 0.0000 0.0000 0.0000 -1.7110 -0.5310 11.3082 5.8356 -1.6627 -1.4062 -0.0000 0.0000 -0.0000 1.3956 -1.6121 -2.8892 -0.0000 0.0000 -0.0000 -33.6206 -2.5367 2.3949 -39.3807 -16.1600 -21.1670 -8.8729 5.1334 48.5306 14.8976 -2.6757 -1.0146 -0.0000 0.0000 -0.0000 35.3413 5.2941 3.6403 41.0003 2.2342 -10.9689 9.1989 11.6893 13.1560 -10.7323 2.6752 -0.7227 0.0000 0.0000 0.0000 -0.2004 2.6729 -4.1630 2.6088 10.1346 19.1121 1.3472 0.0089 -8.0114 0.0000 0.0000 -0.0000
-36.4369 39.2389 -1.4944 -162.7620 -81.9404 156.5020 0.0000 0.0000 0.0000 2.4500 -3.5258 -12.9641 -5.5240 -7.6638 29.2294 0.8529 -0.0753 -2.2657 0.0000 -0.0000 0.0000 0.0000 0.0000 0.0000 -1.5270 -0.5228 10.9671 6.0034 -1.6934 -1.3064 -0.0000 0.0000 -0.0000 1.5619 -1.9823 -2.9557 -0.0000 0.0000 -0.0000 -33.7056 -2.5004 2.3857 -38.9443 -17.4073 -20.3652 -9.4229 5.1962 46.1006 15.1796 -2.8833 -1.0601 -0.0000 0.0000 -0.0000 35.3051 5.2879 3.6345 41.2457 2.9199 -9.8776 9.0126 12.1683 12.9847 -10.8415 2.5038 -0.7142 0.0000 0.0000 0.0000 0.1711 2.8368 -2.6753 2.3346 9.9359 17.7325 1.3515 0.0117 -8.1720 0.0000 0.0000 -0.0000
-37.1246 39.3983 -1.5828 -161.5090 -82.2341 155.7320 0.0000 0.0000 0.0000 3.0745 -2.6649 -12.1314 -3.6607 -7.4185 19.3545 0.8834 -0.0892 0.0074 0.0000 -0.0000 0.0000 0.0000 0.0000 0.0000 -1.7425 -0.4981 10.2090 6.2525 -1.7447 -0.9411 -0.0000 0.0000 -0.0000 1.6363 -2.4076 -3.0641 -0.0000 0.0000 -0.0000 -33.4102 -2.4964 2.3662 -39.0668 -18.5376 -19.3363 -10.0346 5.2633 43.3150 15.0764 -3.1508 -1.0855 -0.0000 0.0000 -0.0000 35.2766 5.2882 3.6353 41.2535 3.5600 -9.7536 9.1306 11.9406 13.8102 -10.8553 2.4378 -0.7122 0.0000 0.0000 0.0000 0.2259 2.8375 -1.1760 1.9988 9.7865 15.8706 1.5839 0.0031 -8.0656 0.0000 0.0000 -0.0000
-37.7884 39.5606 -1.6897 -161.6220 -82.7944 156.2040 0.0000 0.0000 0.0000 3.1583 -1.5485 -10.6896 -2.1062 -7.3676 9.8553 1.8257 -0.2184 2.8475 0.0000 -0.0000 0.0000 0.0000 0.0000 0.0000 -2.1517 -0.4670 9.4051 6.4210 -1.7758 -0.5143 -0.0000 0.0000 -0.0000 1.6884 -2.8110 -3.0371 -0.0000 0.0000 -0.0000 -32.9276 -2.5577 2.3609 -39.5183 -19.5202 -18.1526 -10.6716 5.3292 40.3397 14.7601 -3.3795 -1.0895 -0.0000 0.0000 -0.0000 35.2835 5.2897 3.6367 41.1214 3.9320 -10.3692 9.3890 11.3267 14.9930 -10.8116 2.5676 -0.7202 0.0000 0.0000 0.0000 0.0524 2.7803 0.4951 1.5542 9.5627 13.7920 2.1827 -0.0190 -7.8640 0.0000 0.0000 -0.0000
-38.4569 39.6757 -1.8133 -162.6640 -83.2541 157.4190 0.0000 0.0000 0.0000 2.8952 0.2508 -9.1798 -0.8809 -7.8964 2.6630 3.3617 -0.4547 4.6919 0.0000 -0.0000 0.0000 0.0000 0.0000 0.0000 -2.3131 -0.3281 8.6215 6.2620 -1.6129 -0.1289 -0.0000 0.0000 -0.0000 1.6996 -3.1524 -2.6567 -0.0000 0.0000 -0.0000 -32.7481 -2.6268 2.3768 -39.8273 -20.3518 -16.9976 -11.2482 5.4086 37.6902 14.4761 -3.5161 -1.0838 -0.0000 0.0000 -0.0000 35.3070 5.2890 3.6343 40.9484 3.9888 -11.6285 9.7320 10.3728 16.1887 -10.9625 2.6031 -0.7337 0.0000 0.0000 0.0000 -0.0786 2.8345 2.1848 1.1276 9.3949 12.1469 2.6541 -0.0315 -7.9211 0.0000 0.0000 -0.0000
-39.1560 39.7061 -1.9608 -164.6360 -83.2629 159.5180 0.0000 0.0000 0.0000 3.1362 0.9596 -8.3397 -0.4043 -6.7344 -0.5997 4.4288 -0.6280 5.2981 0.0000 -0.0000 0.0000 0.0000 0.0000 0.0000 -2.1143 -0.0098 7.6922 5.8115 -1.1884 0.1739 -0.0000 0.0000 -0.0000 1.5843 -3.4001 -1.8956 -0.0000 0.0000 -0.0000 -32.9705 -2.6278 2.3908 -39.9477 -20.7852 -15.9356 -11.7251 5.2421 35.7080 14.2955 -3.6782 -1.0886 -0.0000 0.0000 -0.0000 35.2390 5.2752 3.6228 40.8336 3.8585 -13.5479 10.1252 8.8762 17.7804 -11.1968 2.4305 -0.7346 0.0000 0.0000 0.0000 0.0365 3.1593 3.5853 0.6841 9.3011 11.4473 2.5725 -0.0100 -8.6065 0.0000 0.0000 -0.0000
-39.8608 39.6686 -2.1347 -167.9630 -83.0815 162.9670 0.0000 0.0000 0.0000 3.3861 1.0822 -8.0640 -0.3093 -4.8406 -0.6048 3.9850 -0.5870 6.1150 0.0000 -0.0000 0.0000 0.0000 0.0000 0.0000 -1.9597 0.3599 6.7517 5.3324 -0.6915 0.2912 -0.0000 0.0000 -0.0000 1.3193 -3.4637 -1.0888 -0.0000 0.0000 -0.0000 -33.2558 -2.5809 2.3900 -40.1727 -20.6027 -14.8798 -12.1222 3.8199 34.3996 14.2027 -3.9665 -1.1145 -0.0000 0.0000 -0.0000 35.1428 5.2608 3.6082 40.7613 3.6244 -15.6317 10.3477 7.0351 19.5782 -11.1847 2.2589 -0.7186 0.0000 0.0000 0.0000 0.2040 3.7174 4.6224 0.1638 8.9838 11.6099 2.1119 0.0286 -9.7289 0.0000 0.0000 -0.0000
-40.5483 39.6099 -2.3171 -171.4450 -83.2264 166.3130 0.0000 0.0000 0.0000 3.3496 0.7986 -7.6608 -0.2194 -3.4221 0.7165 2.2405 -0.3432 7.5052 0.0000 -0.0000 0.0000 0.0000 0.0000 0.0000 -1.8826 0.5511 6.1563 4.8212 -0.3770 0.3314 -0.0000 0.0000 -0.0000 0.9543 -3.2871 -0.6498 -0.0000 0.0000 -0.0000 -33.4897 -2.5540 2.3938 -40.5190 -20.0181 -13.8727 -12.4596 1.6057 33.6164 14.2503 -4.2458 -1.1507 -0.0000 0.0000 -0.0000 35.2664 5.2779 3.6264 40.5392 3.2998 -17.1440 10.2929 5.3708 20.6212 -10.9971 2.2026 -0.7012 0.0000 0.0000 0.0000 0.2700 4.6542 5.5724 -0.1984 7.8920 12.3719 1.5850 0.0569 -10.7741 0.0000 0.0000 -0.0000
